<mxfile host="Electron" modified="2023-10-06T19:29:12.017Z" agent="Mozilla/5.0 (Windows NT 10.0; Win64; x64) AppleWebKit/537.36 (KHTML, like Gecko) draw.io/22.0.0 Chrome/114.0.5735.289 Electron/25.8.3 Safari/537.36" etag="XEYOsLzqO8s0OdoZk9Zo" version="22.0.0" type="device">
  <diagram name="Page-1" id="13e1069c-82ec-6db2-03f1-153e76fe0fe0">
    <mxGraphModel dx="2671" dy="1774" grid="1" gridSize="10" guides="1" tooltips="1" connect="1" arrows="1" fold="1" page="1" pageScale="1" pageWidth="1100" pageHeight="850" background="none" math="0" shadow="0">
      <root>
        <mxCell id="0" />
        <mxCell id="1" parent="0" />
        <mxCell id="kc9Rs6pLfp7p-eovs7_c-2" value="SDGenerate Report" style="shape=umlFrame;whiteSpace=wrap;html=1;pointerEvents=0;width=130;height=30;" parent="1" vertex="1">
          <mxGeometry x="-610" y="-40" width="1590" height="1760" as="geometry" />
        </mxCell>
        <mxCell id="kc9Rs6pLfp7p-eovs7_c-5" value="" style="shape=umlLifeline;perimeter=lifelinePerimeter;whiteSpace=wrap;html=1;container=1;dropTarget=0;collapsible=0;recursiveResize=0;outlineConnect=0;portConstraint=eastwest;newEdgeStyle={&quot;edgeStyle&quot;:&quot;elbowEdgeStyle&quot;,&quot;elbow&quot;:&quot;vertical&quot;,&quot;curved&quot;:0,&quot;rounded&quot;:0};participant=umlActor;size=40;gradientColor=none;" parent="1" vertex="1">
          <mxGeometry x="-470" width="20" height="1720" as="geometry" />
        </mxCell>
        <mxCell id="kc9Rs6pLfp7p-eovs7_c-6" value="System Admin" style="text;html=1;align=center;verticalAlign=middle;resizable=0;points=[];autosize=1;strokeColor=none;fillColor=none;perimeterSpacing=0;" parent="1" vertex="1">
          <mxGeometry x="-510" y="40" width="100" height="30" as="geometry" />
        </mxCell>
        <mxCell id="kc9Rs6pLfp7p-eovs7_c-8" value="&lt;u&gt;:Report UI&lt;/u&gt;" style="shape=umlLifeline;perimeter=lifelinePerimeter;whiteSpace=wrap;html=1;container=1;dropTarget=0;collapsible=0;recursiveResize=0;outlineConnect=0;portConstraint=eastwest;newEdgeStyle={&quot;edgeStyle&quot;:&quot;elbowEdgeStyle&quot;,&quot;elbow&quot;:&quot;vertical&quot;,&quot;curved&quot;:0,&quot;rounded&quot;:0};" parent="1" vertex="1">
          <mxGeometry x="160" width="100" height="1720" as="geometry" />
        </mxCell>
        <mxCell id="kc9Rs6pLfp7p-eovs7_c-26" value="" style="html=1;points=[];perimeter=orthogonalPerimeter;outlineConnect=0;targetShapes=umlLifeline;portConstraint=eastwest;newEdgeStyle={&quot;edgeStyle&quot;:&quot;elbowEdgeStyle&quot;,&quot;elbow&quot;:&quot;vertical&quot;,&quot;curved&quot;:0,&quot;rounded&quot;:0};" parent="kc9Rs6pLfp7p-eovs7_c-8" vertex="1">
          <mxGeometry x="42.85" y="270" width="10" height="140" as="geometry" />
        </mxCell>
        <mxCell id="htBChLCQWQIxq8VSQ7nx-8" value="" style="html=1;points=[];perimeter=orthogonalPerimeter;outlineConnect=0;targetShapes=umlLifeline;portConstraint=eastwest;newEdgeStyle={&quot;edgeStyle&quot;:&quot;elbowEdgeStyle&quot;,&quot;elbow&quot;:&quot;vertical&quot;,&quot;curved&quot;:0,&quot;rounded&quot;:0};" parent="kc9Rs6pLfp7p-eovs7_c-8" vertex="1">
          <mxGeometry x="45" y="1455" width="10" height="140" as="geometry" />
        </mxCell>
        <mxCell id="kc9Rs6pLfp7p-eovs7_c-9" value="&lt;u&gt;:Generate Report&lt;/u&gt;" style="shape=umlLifeline;perimeter=lifelinePerimeter;whiteSpace=wrap;html=1;container=1;dropTarget=0;collapsible=0;recursiveResize=0;outlineConnect=0;portConstraint=eastwest;newEdgeStyle={&quot;edgeStyle&quot;:&quot;elbowEdgeStyle&quot;,&quot;elbow&quot;:&quot;vertical&quot;,&quot;curved&quot;:0,&quot;rounded&quot;:0};connectable=1;size=40;" parent="1" vertex="1">
          <mxGeometry x="450" width="100" height="1720" as="geometry" />
        </mxCell>
        <mxCell id="kc9Rs6pLfp7p-eovs7_c-32" value="" style="html=1;points=[];perimeter=orthogonalPerimeter;outlineConnect=0;targetShapes=umlLifeline;portConstraint=eastwest;newEdgeStyle={&quot;edgeStyle&quot;:&quot;elbowEdgeStyle&quot;,&quot;elbow&quot;:&quot;vertical&quot;,&quot;curved&quot;:0,&quot;rounded&quot;:0};gradientColor=none;" parent="kc9Rs6pLfp7p-eovs7_c-9" vertex="1">
          <mxGeometry x="45" y="270" width="10" height="140" as="geometry" />
        </mxCell>
        <mxCell id="kc9Rs6pLfp7p-eovs7_c-41" value="" style="html=1;points=[];perimeter=orthogonalPerimeter;outlineConnect=0;targetShapes=umlLifeline;portConstraint=eastwest;newEdgeStyle={&quot;edgeStyle&quot;:&quot;elbowEdgeStyle&quot;,&quot;elbow&quot;:&quot;vertical&quot;,&quot;curved&quot;:0,&quot;rounded&quot;:0};" parent="kc9Rs6pLfp7p-eovs7_c-9" vertex="1">
          <mxGeometry x="45" y="430" width="10" height="830" as="geometry" />
        </mxCell>
        <mxCell id="kc9Rs6pLfp7p-eovs7_c-15" value="&lt;u&gt;:ReportDB&lt;/u&gt;" style="shape=umlLifeline;perimeter=lifelinePerimeter;whiteSpace=wrap;html=1;container=1;dropTarget=0;collapsible=0;recursiveResize=0;outlineConnect=0;portConstraint=eastwest;newEdgeStyle={&quot;edgeStyle&quot;:&quot;elbowEdgeStyle&quot;,&quot;elbow&quot;:&quot;vertical&quot;,&quot;curved&quot;:0,&quot;rounded&quot;:0};" parent="1" vertex="1">
          <mxGeometry x="710" width="100" height="1720" as="geometry" />
        </mxCell>
        <mxCell id="kc9Rs6pLfp7p-eovs7_c-77" value="" style="html=1;points=[];perimeter=orthogonalPerimeter;outlineConnect=0;targetShapes=umlLifeline;portConstraint=eastwest;newEdgeStyle={&quot;edgeStyle&quot;:&quot;elbowEdgeStyle&quot;,&quot;elbow&quot;:&quot;vertical&quot;,&quot;curved&quot;:0,&quot;rounded&quot;:0};fontSize=16;" parent="kc9Rs6pLfp7p-eovs7_c-15" vertex="1">
          <mxGeometry x="45" y="410" width="10" height="740" as="geometry" />
        </mxCell>
        <mxCell id="htBChLCQWQIxq8VSQ7nx-10" value="" style="html=1;points=[];perimeter=orthogonalPerimeter;outlineConnect=0;targetShapes=umlLifeline;portConstraint=eastwest;newEdgeStyle={&quot;edgeStyle&quot;:&quot;elbowEdgeStyle&quot;,&quot;elbow&quot;:&quot;vertical&quot;,&quot;curved&quot;:0,&quot;rounded&quot;:0};" parent="kc9Rs6pLfp7p-eovs7_c-15" vertex="1">
          <mxGeometry x="45" y="1455" width="10" height="145" as="geometry" />
        </mxCell>
        <mxCell id="kc9Rs6pLfp7p-eovs7_c-19" value="ref" style="shape=umlFrame;whiteSpace=wrap;html=1;pointerEvents=0;width=50;height=20;" parent="1" vertex="1">
          <mxGeometry x="-390" y="160" width="520" height="60" as="geometry" />
        </mxCell>
        <mxCell id="kc9Rs6pLfp7p-eovs7_c-20" value="&lt;b&gt;&lt;font style=&quot;font-size: 11px;&quot;&gt;System&amp;nbsp; Admin Loging&lt;/font&gt;&lt;/b&gt;" style="text;html=1;align=center;verticalAlign=middle;resizable=0;points=[];autosize=1;strokeColor=none;fillColor=none;" parent="1" vertex="1">
          <mxGeometry x="-287.15" y="169" width="150" height="30" as="geometry" />
        </mxCell>
        <mxCell id="kc9Rs6pLfp7p-eovs7_c-33" value="&lt;b&gt;GetReportoption()&lt;/b&gt;" style="html=1;verticalAlign=bottom;endArrow=block;elbow=vertical;rounded=0;endFill=1;" parent="1" target="kc9Rs6pLfp7p-eovs7_c-32" edge="1">
          <mxGeometry relative="1" as="geometry">
            <mxPoint x="215" y="280" as="sourcePoint" />
            <mxPoint x="365" y="280" as="targetPoint" />
            <Array as="points">
              <mxPoint x="290" y="280" />
            </Array>
            <mxPoint as="offset" />
          </mxGeometry>
        </mxCell>
        <mxCell id="kc9Rs6pLfp7p-eovs7_c-35" value="" style="endArrow=none;dashed=1;endFill=0;endSize=12;html=1;rounded=0;startArrow=open;startFill=0;exitX=0.528;exitY=0.279;exitDx=0;exitDy=0;exitPerimeter=0;" parent="1" edge="1">
          <mxGeometry width="160" relative="1" as="geometry">
            <mxPoint x="210.6700000000002" y="398.5999999999999" as="sourcePoint" />
            <mxPoint x="495.02" y="398.5999999999999" as="targetPoint" />
          </mxGeometry>
        </mxCell>
        <mxCell id="kc9Rs6pLfp7p-eovs7_c-27" value="&lt;b&gt;GetReportoption()&lt;/b&gt;" style="html=1;verticalAlign=bottom;endArrow=open;edgeStyle=elbowEdgeStyle;elbow=vertical;curved=0;rounded=0;endFill=0;" parent="1" edge="1">
          <mxGeometry x="0.3182" relative="1" as="geometry">
            <mxPoint x="135" y="280" as="sourcePoint" />
            <mxPoint x="205" y="280" as="targetPoint" />
            <Array as="points">
              <mxPoint x="-460" y="280" />
            </Array>
            <mxPoint as="offset" />
          </mxGeometry>
        </mxCell>
        <mxCell id="kc9Rs6pLfp7p-eovs7_c-36" value="&lt;font style=&quot;font-size: 11px;&quot;&gt;&lt;b&gt;Display list of &lt;/b&gt;&lt;/font&gt;&lt;font style=&quot;font-size: 11px;&quot;&gt;&lt;b&gt;available &lt;/b&gt;&lt;/font&gt;&lt;font style=&quot;font-size: 11px;&quot;&gt;&lt;b&gt;report option()&lt;/b&gt;&lt;/font&gt;" style="text;html=1;align=center;verticalAlign=middle;resizable=0;points=[];autosize=1;strokeColor=none;fillColor=none;" parent="1" vertex="1">
          <mxGeometry x="237.87" y="368" width="230" height="30" as="geometry" />
        </mxCell>
        <mxCell id="kc9Rs6pLfp7p-eovs7_c-39" value="&lt;b&gt;SelectReportoption()&lt;/b&gt;" style="html=1;verticalAlign=bottom;endArrow=open;edgeStyle=elbowEdgeStyle;elbow=vertical;curved=0;rounded=0;endFill=0;" parent="1" edge="1">
          <mxGeometry x="0.3824" relative="1" as="geometry">
            <mxPoint x="100" y="451" as="sourcePoint" />
            <mxPoint x="205" y="451" as="targetPoint" />
            <Array as="points">
              <mxPoint x="-460" y="451" />
            </Array>
            <mxPoint as="offset" />
          </mxGeometry>
        </mxCell>
        <mxCell id="kc9Rs6pLfp7p-eovs7_c-53" value="" style="endArrow=none;dashed=1;endFill=0;endSize=12;html=1;rounded=0;exitX=1;exitY=0.444;exitDx=0;exitDy=0;exitPerimeter=0;entryX=0.002;entryY=0.475;entryDx=0;entryDy=0;entryPerimeter=0;" parent="1" source="kc9Rs6pLfp7p-eovs7_c-118" target="kc9Rs6pLfp7p-eovs7_c-118" edge="1">
          <mxGeometry width="160" relative="1" as="geometry">
            <mxPoint x="790" y="858.1999999999998" as="sourcePoint" />
            <mxPoint x="161.26" y="857" as="targetPoint" />
          </mxGeometry>
        </mxCell>
        <mxCell id="kc9Rs6pLfp7p-eovs7_c-60" value="&lt;b&gt;DisplayGenerateReport(&lt;/b&gt;&lt;b&gt;Details&lt;/b&gt;&lt;b&gt;)&lt;/b&gt;" style="html=1;verticalAlign=bottom;endArrow=none;elbow=vertical;rounded=0;endFill=0;startArrow=open;startFill=0;dashed=1;" parent="1" target="kc9Rs6pLfp7p-eovs7_c-41" edge="1">
          <mxGeometry x="-0.0476" y="4" relative="1" as="geometry">
            <mxPoint x="215" y="880.0000000000002" as="sourcePoint" />
            <mxPoint x="455" y="880.0000000000002" as="targetPoint" />
            <mxPoint as="offset" />
          </mxGeometry>
        </mxCell>
        <mxCell id="kc9Rs6pLfp7p-eovs7_c-72" value="&lt;b&gt;SaveGeneratereport()&lt;/b&gt;" style="html=1;verticalAlign=bottom;endArrow=open;elbow=vertical;rounded=0;endFill=0;" parent="1" edge="1">
          <mxGeometry x="-0.0265" relative="1" as="geometry">
            <mxPoint x="500" y="820" as="sourcePoint" />
            <mxPoint x="760" y="820" as="targetPoint" />
            <mxPoint as="offset" />
          </mxGeometry>
        </mxCell>
        <mxCell id="kc9Rs6pLfp7p-eovs7_c-75" value="&lt;b&gt;RequestsDetails()&lt;/b&gt;" style="html=1;verticalAlign=bottom;endArrow=classic;elbow=vertical;rounded=0;endFill=1;" parent="1" edge="1">
          <mxGeometry x="-0.0805" relative="1" as="geometry">
            <mxPoint x="505" y="720" as="sourcePoint" />
            <mxPoint x="755" y="720" as="targetPoint" />
            <Array as="points" />
            <mxPoint as="offset" />
          </mxGeometry>
        </mxCell>
        <mxCell id="kc9Rs6pLfp7p-eovs7_c-78" value="&lt;b&gt;ProvideDetails()&lt;/b&gt;" style="html=1;verticalAlign=bottom;endArrow=none;elbow=vertical;rounded=0;endFill=0;dashed=1;startArrow=open;startFill=0;" parent="1" edge="1">
          <mxGeometry x="-0.0659" relative="1" as="geometry">
            <mxPoint x="505" y="750" as="sourcePoint" />
            <mxPoint x="765" y="750" as="targetPoint" />
            <mxPoint as="offset" />
          </mxGeometry>
        </mxCell>
        <mxCell id="kc9Rs6pLfp7p-eovs7_c-81" value="loop" style="shape=umlFrame;whiteSpace=wrap;html=1;pointerEvents=0;fontSize=16;width=70;height=30;" parent="1" vertex="1">
          <mxGeometry x="-570" y="340" width="1480" height="1000" as="geometry" />
        </mxCell>
        <mxCell id="kc9Rs6pLfp7p-eovs7_c-103" value="[invalid criteria]" style="text;html=1;align=center;verticalAlign=middle;resizable=0;points=[];autosize=1;strokeColor=none;fillColor=none;fontSize=16;" parent="1" vertex="1">
          <mxGeometry x="42.85000000000002" y="610" width="130" height="30" as="geometry" />
        </mxCell>
        <mxCell id="kc9Rs6pLfp7p-eovs7_c-37" value="" style="html=1;points=[];perimeter=orthogonalPerimeter;outlineConnect=0;targetShapes=umlLifeline;portConstraint=eastwest;newEdgeStyle={&quot;edgeStyle&quot;:&quot;elbowEdgeStyle&quot;,&quot;elbow&quot;:&quot;vertical&quot;,&quot;curved&quot;:0,&quot;rounded&quot;:0};" parent="1" vertex="1">
          <mxGeometry x="205" y="440" width="10" height="820" as="geometry" />
        </mxCell>
        <mxCell id="kc9Rs6pLfp7p-eovs7_c-105" value="alt" style="shape=umlFrame;whiteSpace=wrap;html=1;pointerEvents=0;fontSize=16;width=50;height=30;" parent="1" vertex="1">
          <mxGeometry x="-40" y="610" width="880" height="380" as="geometry" />
        </mxCell>
        <mxCell id="kc9Rs6pLfp7p-eovs7_c-109" value="&lt;b&gt;SelectReportoption()&lt;/b&gt;" style="html=1;verticalAlign=bottom;endArrow=classic;elbow=vertical;rounded=0;endFill=1;entryX=0.5;entryY=0.018;entryDx=0;entryDy=0;entryPerimeter=0;" parent="1" source="kc9Rs6pLfp7p-eovs7_c-37" target="kc9Rs6pLfp7p-eovs7_c-41" edge="1">
          <mxGeometry x="-0.0556" relative="1" as="geometry">
            <mxPoint x="237.5" y="450" as="sourcePoint" />
            <mxPoint x="442.5" y="450" as="targetPoint" />
            <mxPoint as="offset" />
          </mxGeometry>
        </mxCell>
        <mxCell id="kc9Rs6pLfp7p-eovs7_c-110" value="&lt;b&gt;prompt admin to select criteria&lt;br&gt;&lt;/b&gt;" style="html=1;verticalAlign=bottom;endArrow=none;elbow=vertical;rounded=0;endFill=0;exitX=1.343;exitY=0.105;exitDx=0;exitDy=0;exitPerimeter=0;startArrow=open;startFill=0;dashed=1;" parent="1" edge="1">
          <mxGeometry x="-0.0576" relative="1" as="geometry">
            <mxPoint x="215.00000000000006" y="499.85" as="sourcePoint" />
            <mxPoint x="500" y="500" as="targetPoint" />
            <mxPoint as="offset" />
          </mxGeometry>
        </mxCell>
        <mxCell id="kc9Rs6pLfp7p-eovs7_c-111" value="&lt;b&gt;Enter the criteria(&lt;/b&gt;&lt;b&gt;daterange, specificusers&lt;/b&gt;&lt;b&gt;)&lt;br&gt;&lt;/b&gt;" style="html=1;verticalAlign=bottom;endArrow=open;elbow=vertical;rounded=0;endFill=0;" parent="1" source="kc9Rs6pLfp7p-eovs7_c-5" edge="1">
          <mxGeometry x="-0.1175" relative="1" as="geometry">
            <mxPoint x="60" y="534.5" as="sourcePoint" />
            <mxPoint x="212" y="534.5" as="targetPoint" />
            <mxPoint as="offset" />
          </mxGeometry>
        </mxCell>
        <mxCell id="kc9Rs6pLfp7p-eovs7_c-112" value="&lt;b&gt;Enter the criteria(&lt;/b&gt;&lt;b&gt;daterange, specificusers&lt;/b&gt;&lt;b&gt;)&lt;br&gt;&lt;/b&gt;" style="html=1;verticalAlign=bottom;endArrow=classic;elbow=vertical;rounded=0;endFill=1;entryX=-0.5;entryY=0.168;entryDx=0;entryDy=0;entryPerimeter=0;" parent="1" edge="1">
          <mxGeometry relative="1" as="geometry">
            <mxPoint x="215" y="540" as="sourcePoint" />
            <mxPoint x="495" y="540.04" as="targetPoint" />
            <mxPoint as="offset" />
          </mxGeometry>
        </mxCell>
        <mxCell id="kc9Rs6pLfp7p-eovs7_c-113" value="" style="endArrow=none;dashed=1;endFill=0;endSize=12;html=1;rounded=0;exitX=1.009;exitY=0.349;exitDx=0;exitDy=0;exitPerimeter=0;entryX=-0.004;entryY=0.142;entryDx=0;entryDy=0;entryPerimeter=0;" parent="1" edge="1">
          <mxGeometry width="160" relative="1" as="geometry">
            <mxPoint x="843.38" y="680.36" as="sourcePoint" />
            <mxPoint x="-43.37999999999998" y="679.9999999999999" as="targetPoint" />
          </mxGeometry>
        </mxCell>
        <mxCell id="kc9Rs6pLfp7p-eovs7_c-114" value="&lt;b&gt;re enter valid criteria&lt;/b&gt;" style="html=1;verticalAlign=bottom;endArrow=none;elbow=vertical;rounded=0;endFill=0;startArrow=open;startFill=0;dashed=1;" parent="1" edge="1">
          <mxGeometry x="0.0237" relative="1" as="geometry">
            <mxPoint x="218.69" y="650" as="sourcePoint" />
            <mxPoint x="495" y="650" as="targetPoint" />
            <Array as="points" />
            <mxPoint as="offset" />
          </mxGeometry>
        </mxCell>
        <mxCell id="kc9Rs6pLfp7p-eovs7_c-117" value="[valid criteria]" style="text;html=1;align=center;verticalAlign=middle;resizable=0;points=[];autosize=1;strokeColor=none;fillColor=none;fontSize=16;" parent="1" vertex="1">
          <mxGeometry x="47.85000000000002" y="690" width="120" height="30" as="geometry" />
        </mxCell>
        <mxCell id="kc9Rs6pLfp7p-eovs7_c-118" value="para" style="shape=umlFrame;whiteSpace=wrap;html=1;pointerEvents=0;fontSize=16;" parent="1" vertex="1">
          <mxGeometry x="140" y="790" width="680" height="110" as="geometry" />
        </mxCell>
        <mxCell id="kc9Rs6pLfp7p-eovs7_c-123" value="&lt;b style=&quot;border-color: var(--border-color); background-color: rgb(251, 251, 251);&quot;&gt;DisplaySelectanother report option&lt;/b&gt;&lt;b&gt;&lt;br&gt;&lt;/b&gt;" style="html=1;verticalAlign=bottom;endArrow=none;elbow=vertical;rounded=0;endFill=0;startArrow=open;startFill=0;" parent="1" edge="1">
          <mxGeometry x="-0.0292" relative="1" as="geometry">
            <mxPoint x="210.37" y="1050" as="sourcePoint" />
            <mxPoint x="495.37" y="1050" as="targetPoint" />
            <mxPoint as="offset" />
          </mxGeometry>
        </mxCell>
        <mxCell id="kc9Rs6pLfp7p-eovs7_c-126" value="break" style="shape=umlFrame;whiteSpace=wrap;html=1;pointerEvents=0;fontSize=16;" parent="1" vertex="1">
          <mxGeometry x="-500" y="1090" width="1060" height="120" as="geometry" />
        </mxCell>
        <mxCell id="kc9Rs6pLfp7p-eovs7_c-127" value="[if exit the report generation process]" style="text;html=1;align=center;verticalAlign=middle;resizable=0;points=[];autosize=1;strokeColor=none;fillColor=none;fontSize=16;" parent="1" vertex="1">
          <mxGeometry x="-435" y="1090" width="280" height="30" as="geometry" />
        </mxCell>
        <mxCell id="kc9Rs6pLfp7p-eovs7_c-129" value="" style="html=1;points=[];perimeter=orthogonalPerimeter;outlineConnect=0;targetShapes=umlLifeline;portConstraint=eastwest;newEdgeStyle={&quot;edgeStyle&quot;:&quot;elbowEdgeStyle&quot;,&quot;elbow&quot;:&quot;vertical&quot;,&quot;curved&quot;:0,&quot;rounded&quot;:0};fontSize=16;" parent="1" vertex="1">
          <mxGeometry x="500" y="560" width="10" height="40" as="geometry" />
        </mxCell>
        <mxCell id="kc9Rs6pLfp7p-eovs7_c-130" value="&lt;b&gt;Validetion Criteria()&lt;br&gt;&lt;/b&gt;" style="html=1;align=left;spacingLeft=2;endArrow=block;rounded=0;edgeStyle=orthogonalEdgeStyle;curved=0;rounded=0;fontSize=12;startSize=8;endSize=8;" parent="1" target="kc9Rs6pLfp7p-eovs7_c-129" edge="1">
          <mxGeometry relative="1" as="geometry">
            <mxPoint x="505" y="540" as="sourcePoint" />
            <Array as="points">
              <mxPoint x="530" y="570" />
            </Array>
          </mxGeometry>
        </mxCell>
        <mxCell id="kc9Rs6pLfp7p-eovs7_c-131" value="opt" style="shape=umlFrame;whiteSpace=wrap;html=1;pointerEvents=0;fontSize=16;" parent="1" vertex="1">
          <mxGeometry x="-500" y="1470" width="1360" height="110" as="geometry" />
        </mxCell>
        <mxCell id="kc9Rs6pLfp7p-eovs7_c-132" value="[if want download reports] " style="text;html=1;align=center;verticalAlign=middle;resizable=0;points=[];autosize=1;strokeColor=none;fillColor=none;fontSize=16;" parent="1" vertex="1">
          <mxGeometry x="-425" y="1470" width="210" height="30" as="geometry" />
        </mxCell>
        <mxCell id="8BMjU7zGhwk8pmjyqhKS-4" value="&lt;font style=&quot;font-size: 11px;&quot;&gt;&lt;b&gt;Display report has been generated and saved.&lt;br&gt;&lt;/b&gt;&lt;/font&gt;" style="html=1;verticalAlign=bottom;endArrow=none;elbow=vertical;rounded=0;endFill=0;startArrow=open;startFill=0;dashed=1;" parent="1" edge="1">
          <mxGeometry x="-0.0409" relative="1" as="geometry">
            <mxPoint x="210.37" y="1190" as="sourcePoint" />
            <mxPoint x="495.37" y="1190" as="targetPoint" />
            <mxPoint as="offset" />
          </mxGeometry>
        </mxCell>
        <mxCell id="8BMjU7zGhwk8pmjyqhKS-6" value="" style="shape=umlBoundary;whiteSpace=wrap;html=1;fontSize=16;" parent="1" vertex="1">
          <mxGeometry x="242.85" width="10" height="10" as="geometry" />
        </mxCell>
        <mxCell id="8BMjU7zGhwk8pmjyqhKS-7" value="" style="ellipse;shape=umlControl;whiteSpace=wrap;html=1;fontSize=16;" parent="1" vertex="1">
          <mxGeometry x="530" width="12" height="10" as="geometry" />
        </mxCell>
        <mxCell id="8BMjU7zGhwk8pmjyqhKS-8" value="" style="ellipse;shape=umlEntity;whiteSpace=wrap;html=1;fontSize=16;" parent="1" vertex="1">
          <mxGeometry x="790" width="10" height="10" as="geometry" />
        </mxCell>
        <mxCell id="8BMjU7zGhwk8pmjyqhKS-9" value="&lt;u&gt;:Login UI&lt;/u&gt;" style="shape=umlLifeline;perimeter=lifelinePerimeter;whiteSpace=wrap;html=1;container=1;dropTarget=0;collapsible=0;recursiveResize=0;outlineConnect=0;portConstraint=eastwest;newEdgeStyle={&quot;edgeStyle&quot;:&quot;elbowEdgeStyle&quot;,&quot;elbow&quot;:&quot;vertical&quot;,&quot;curved&quot;:0,&quot;rounded&quot;:0};" parent="1" vertex="1">
          <mxGeometry x="-370" width="100" height="1720" as="geometry" />
        </mxCell>
        <mxCell id="8BMjU7zGhwk8pmjyqhKS-10" value="" style="html=1;points=[];perimeter=orthogonalPerimeter;outlineConnect=0;targetShapes=umlLifeline;portConstraint=eastwest;newEdgeStyle={&quot;edgeStyle&quot;:&quot;elbowEdgeStyle&quot;,&quot;elbow&quot;:&quot;vertical&quot;,&quot;curved&quot;:0,&quot;rounded&quot;:0};" parent="8BMjU7zGhwk8pmjyqhKS-9" vertex="1">
          <mxGeometry x="45" y="140" width="10" height="90" as="geometry" />
        </mxCell>
        <mxCell id="8BMjU7zGhwk8pmjyqhKS-13" value="&lt;u&gt;:Login control&lt;br&gt;&lt;/u&gt;" style="shape=umlLifeline;perimeter=lifelinePerimeter;whiteSpace=wrap;html=1;container=1;dropTarget=0;collapsible=0;recursiveResize=0;outlineConnect=0;portConstraint=eastwest;newEdgeStyle={&quot;edgeStyle&quot;:&quot;elbowEdgeStyle&quot;,&quot;elbow&quot;:&quot;vertical&quot;,&quot;curved&quot;:0,&quot;rounded&quot;:0};" parent="1" vertex="1">
          <mxGeometry x="-190" width="100" height="1720" as="geometry" />
        </mxCell>
        <mxCell id="8BMjU7zGhwk8pmjyqhKS-14" value="" style="html=1;points=[];perimeter=orthogonalPerimeter;outlineConnect=0;targetShapes=umlLifeline;portConstraint=eastwest;newEdgeStyle={&quot;edgeStyle&quot;:&quot;elbowEdgeStyle&quot;,&quot;elbow&quot;:&quot;vertical&quot;,&quot;curved&quot;:0,&quot;rounded&quot;:0};" parent="8BMjU7zGhwk8pmjyqhKS-13" vertex="1">
          <mxGeometry x="45" y="140" width="10" height="90" as="geometry" />
        </mxCell>
        <mxCell id="8BMjU7zGhwk8pmjyqhKS-15" value="&lt;u&gt;:User DB&lt;br&gt;&lt;/u&gt;" style="shape=umlLifeline;perimeter=lifelinePerimeter;whiteSpace=wrap;html=1;container=1;dropTarget=0;collapsible=0;recursiveResize=0;outlineConnect=0;portConstraint=eastwest;newEdgeStyle={&quot;edgeStyle&quot;:&quot;elbowEdgeStyle&quot;,&quot;elbow&quot;:&quot;vertical&quot;,&quot;curved&quot;:0,&quot;rounded&quot;:0};" parent="1" vertex="1">
          <mxGeometry x="-7.15" width="100" height="1720" as="geometry" />
        </mxCell>
        <mxCell id="8BMjU7zGhwk8pmjyqhKS-16" value="" style="html=1;points=[];perimeter=orthogonalPerimeter;outlineConnect=0;targetShapes=umlLifeline;portConstraint=eastwest;newEdgeStyle={&quot;edgeStyle&quot;:&quot;elbowEdgeStyle&quot;,&quot;elbow&quot;:&quot;vertical&quot;,&quot;curved&quot;:0,&quot;rounded&quot;:0};" parent="8BMjU7zGhwk8pmjyqhKS-15" vertex="1">
          <mxGeometry x="45" y="140" width="10" height="98" as="geometry" />
        </mxCell>
        <mxCell id="8BMjU7zGhwk8pmjyqhKS-19" value="" style="ellipse;shape=umlEntity;whiteSpace=wrap;html=1;fontSize=16;" parent="1" vertex="1">
          <mxGeometry x="75" width="10" height="10" as="geometry" />
        </mxCell>
        <mxCell id="8BMjU7zGhwk8pmjyqhKS-20" value="" style="shape=umlBoundary;whiteSpace=wrap;html=1;fontSize=16;" parent="1" vertex="1">
          <mxGeometry x="-287.15" width="10" height="10" as="geometry" />
        </mxCell>
        <mxCell id="8BMjU7zGhwk8pmjyqhKS-21" value="" style="ellipse;shape=umlControl;whiteSpace=wrap;html=1;fontSize=16;" parent="1" vertex="1">
          <mxGeometry x="-110" width="12" height="10" as="geometry" />
        </mxCell>
        <mxCell id="htBChLCQWQIxq8VSQ7nx-1" value="&lt;font style=&quot;border-color: var(--border-color); font-size: 11px;&quot;&gt;&lt;b style=&quot;border-color: var(--border-color);&quot;&gt;[Available&amp;nbsp;&lt;/b&gt;&lt;/font&gt;&lt;font style=&quot;border-color: var(--border-color); font-size: 11px;&quot;&gt;&lt;b style=&quot;border-color: var(--border-color);&quot;&gt;report option]&lt;/b&gt;&lt;/font&gt;" style="text;html=1;align=center;verticalAlign=middle;resizable=0;points=[];autosize=1;strokeColor=none;fillColor=none;" parent="1" vertex="1">
          <mxGeometry x="-470" y="350" width="150" height="30" as="geometry" />
        </mxCell>
        <mxCell id="htBChLCQWQIxq8VSQ7nx-7" value="&lt;b&gt;download reports()&lt;br&gt;&lt;/b&gt;" style="html=1;verticalAlign=bottom;endArrow=open;elbow=vertical;rounded=0;endFill=0;startArrow=none;startFill=0;entryX=0.5;entryY=0.714;entryDx=0;entryDy=0;entryPerimeter=0;" parent="1" edge="1">
          <mxGeometry x="-0.0058" relative="1" as="geometry">
            <mxPoint x="-463.15" y="1520" as="sourcePoint" />
            <mxPoint x="202.85" y="1520" as="targetPoint" />
            <mxPoint as="offset" />
          </mxGeometry>
        </mxCell>
        <mxCell id="htBChLCQWQIxq8VSQ7nx-11" value="&lt;b style=&quot;border-color: var(--border-color);&quot;&gt;Requests&amp;nbsp;&lt;/b&gt;&lt;b&gt;download reports()&lt;br&gt;&lt;/b&gt;" style="html=1;verticalAlign=bottom;endArrow=classic;elbow=vertical;rounded=0;endFill=1;startArrow=none;startFill=0;" parent="1" edge="1" target="kFQRDcTAoewAAsmGu92Y-1">
          <mxGeometry x="0.0357" y="10" relative="1" as="geometry">
            <mxPoint x="215" y="1520" as="sourcePoint" />
            <mxPoint x="760" y="1520" as="targetPoint" />
            <mxPoint as="offset" />
          </mxGeometry>
        </mxCell>
        <mxCell id="htBChLCQWQIxq8VSQ7nx-12" value="&lt;b&gt;provide download reports()&lt;br&gt;&lt;/b&gt;" style="html=1;verticalAlign=bottom;endArrow=none;elbow=vertical;rounded=0;endFill=0;startArrow=open;startFill=0;dashed=1;" parent="1" edge="1" target="kFQRDcTAoewAAsmGu92Y-1">
          <mxGeometry x="-0.0175" relative="1" as="geometry">
            <mxPoint x="210" y="1550" as="sourcePoint" />
            <mxPoint x="750" y="1550" as="targetPoint" />
            <mxPoint as="offset" />
          </mxGeometry>
        </mxCell>
        <mxCell id="htBChLCQWQIxq8VSQ7nx-14" value="&lt;b&gt;select exit button()&lt;br&gt;&lt;/b&gt;" style="html=1;verticalAlign=bottom;endArrow=open;elbow=vertical;rounded=0;endFill=0;" parent="1" edge="1">
          <mxGeometry x="-0.1175" relative="1" as="geometry">
            <mxPoint x="-465.6111111111111" y="1149.44" as="sourcePoint" />
            <mxPoint x="205" y="1149.44" as="targetPoint" />
            <mxPoint as="offset" />
          </mxGeometry>
        </mxCell>
        <mxCell id="htBChLCQWQIxq8VSQ7nx-15" value="&lt;b&gt;select exit button()&lt;br&gt;&lt;/b&gt;" style="html=1;verticalAlign=bottom;endArrow=classic;elbow=vertical;rounded=0;endFill=1;" parent="1" edge="1">
          <mxGeometry x="-0.171" y="10" relative="1" as="geometry">
            <mxPoint x="210" y="1150" as="sourcePoint" />
            <mxPoint x="499.5" y="1150" as="targetPoint" />
            <mxPoint as="offset" />
          </mxGeometry>
        </mxCell>
        <mxCell id="kFQRDcTAoewAAsmGu92Y-1" value="" style="html=1;points=[];perimeter=orthogonalPerimeter;outlineConnect=0;targetShapes=umlLifeline;portConstraint=eastwest;newEdgeStyle={&quot;edgeStyle&quot;:&quot;elbowEdgeStyle&quot;,&quot;elbow&quot;:&quot;vertical&quot;,&quot;curved&quot;:0,&quot;rounded&quot;:0};" vertex="1" parent="1">
          <mxGeometry x="495" y="1455" width="10" height="140" as="geometry" />
        </mxCell>
        <mxCell id="kFQRDcTAoewAAsmGu92Y-2" value="&lt;b style=&quot;border-color: var(--border-color);&quot;&gt;Requests&amp;nbsp;&lt;/b&gt;&lt;b&gt;download reports()&lt;br&gt;&lt;/b&gt;" style="html=1;verticalAlign=bottom;endArrow=classic;elbow=vertical;rounded=0;endFill=1;startArrow=none;startFill=0;" edge="1" parent="1">
          <mxGeometry x="0.0357" y="10" relative="1" as="geometry">
            <mxPoint x="495" y="1520" as="sourcePoint" />
            <mxPoint x="760" y="1520" as="targetPoint" />
            <mxPoint as="offset" />
          </mxGeometry>
        </mxCell>
        <mxCell id="kFQRDcTAoewAAsmGu92Y-3" value="&lt;b&gt;provide download reports()&lt;br&gt;&lt;/b&gt;" style="html=1;verticalAlign=bottom;endArrow=none;elbow=vertical;rounded=0;endFill=0;startArrow=open;startFill=0;dashed=1;" edge="1" parent="1">
          <mxGeometry x="-0.0175" relative="1" as="geometry">
            <mxPoint x="500" y="1550" as="sourcePoint" />
            <mxPoint x="750" y="1550" as="targetPoint" />
            <mxPoint as="offset" />
          </mxGeometry>
        </mxCell>
      </root>
    </mxGraphModel>
  </diagram>
</mxfile>
